# xmcd
#
# Track frame offsets:
#	150
#	16657
#	32451
#	49902
#	67330
#	80688
#	94147
#	114211
#	138588
#	161999
#	181030
#	195331
#	213132
#	231658
#
# Disc length: 3297 seconds
#
# Revision: 1
# Processed by: cddbd v1.5.2PL0 Copyright (c) Steve Scherf et al.
# Submitted via: audiograbber 1.83.01
#
DISCID=bb0cdf0e
DTITLE=JonesTM - HC200743
DYEAR=2007
DGENRE=Country
TTITLE0=Jeremy Boz - The Pearl
TTITLE1=Ansel Brown - Mine's Bigger
TTITLE2=Brooks and Dunn - God Must Be Busy
TTITLE3=Reba McEntire - The Only Promise That Remains
TTITLE4=Jack Ingram - Maybe She'll Get Lonely [Radio Edit]
TTITLE5=Ingram, Jack - Maybe She'll Get Lonely [Jack's Edit]
TTITLE6=NYR - Ride Wit U
TTITLE7=Liv Warfield - Groove DJ
TTITLE8=Najee Introducing Lomon - Fallin' In Love With You [Album Version]
TTITLE9=Yolanda Adams - Hold On
TTITLE10=Amp Fiddler Feat. Corinne Bailey Rae - If I Don't [Album Version]
TTITLE11=Jonathan Butler - Sarah Sarah [Radio Edit (Stereo)]
TTITLE12=Joan Osborne - I've Got To Use My Imagination
TTITLE13=Kelly Sweet - Dream On
EXTD=
EXTT0=
EXTT1=
EXTT2=
EXTT3=
EXTT4=
EXTT5=
EXTT6=
EXTT7=
EXTT8=
EXTT9=
EXTT10=
EXTT11=
EXTT12=
EXTT13=
PLAYORDER=
